<svg xmlns="http://www.w3.org/2000/svg" viewBox="0 0 32 32">
  <defs>
    <linearGradient id="bg" x1="0" y1="0" x2="1" y2="1">
      <stop offset="0%" stop-color="#1a1a2e"/>
      <stop offset="100%" stop-color="#0f0f1a"/>
    </linearGradient>
    <linearGradient id="icon" x1="0" y1="0" x2="1" y2="1">
      <stop offset="0%" stop-color="#7c9ef8"/>
      <stop offset="100%" stop-color="#b39ddb"/>
    </linearGradient>
  </defs>
  <rect width="32" height="32" rx="7" fill="url(#bg)" stroke="#7c9ef8" stroke-opacity="0.3" stroke-width="0.8"/>
  <rect x="5" y="6" width="22" height="20" rx="2.5" stroke="url(#icon)" stroke-width="1.3" fill="none"/>
  <rect x="5" y="6" width="22" height="20" rx="2.5" fill="url(#icon)" opacity="0.08"/>
  <line x1="7" y1="26" x2="7" y2="29" stroke="url(#icon)" stroke-width="1.3" stroke-linecap="round"/>
  <line x1="25" y1="26" x2="25" y2="29" stroke="url(#icon)" stroke-width="1.3" stroke-linecap="round"/>
  <circle cx="16" cy="16" r="5.5" stroke="url(#icon)" stroke-width="1.1" fill="none"/>
  <circle cx="16" cy="16" r="3.5" stroke="url(#icon)" stroke-width="0.6" opacity="0.35" fill="none"/>
  <circle cx="16" cy="16" r="1.2" fill="url(#icon)"/>
  <line x1="16" y1="10.5" x2="16" y2="12" stroke="url(#icon)" stroke-width="0.9" stroke-linecap="round"/>
  <line x1="16" y1="20" x2="16" y2="21.5" stroke="url(#icon)" stroke-width="0.9" stroke-linecap="round"/>
  <line x1="10.5" y1="16" x2="12" y2="16" stroke="url(#icon)" stroke-width="0.9" stroke-linecap="round"/>
  <line x1="20" y1="16" x2="21.5" y2="16" stroke="url(#icon)" stroke-width="0.9" stroke-linecap="round"/>
  <rect x="23.5" y="13.5" width="2" height="5" rx="1" fill="url(#icon)" opacity="0.5"/>
  <line x1="5" y1="8.5" x2="27" y2="8.5" stroke="url(#icon)" stroke-width="0.5" opacity="0.15"/>
</svg>
